<mxfile host="app.diagrams.net" agent="Mozilla/5.0 (Windows NT 10.0; Win64; x64) AppleWebKit/537.36 (KHTML, like Gecko) Chrome/136.0.0.0 Safari/537.36 Edg/136.0.0.0" version="27.0.6">
  <diagram name="Page-1" id="-nBcPwIaoM3XC_6-Svjo">
    <mxGraphModel dx="2043" dy="675" grid="1" gridSize="10" guides="1" tooltips="1" connect="1" arrows="1" fold="1" page="1" pageScale="1" pageWidth="827" pageHeight="1169" math="0" shadow="0">
      <root>
        <mxCell id="0" />
        <mxCell id="1" parent="0" />
        <mxCell id="wyFu9s85v0W_oplKKnoT-1" value="Local Network" style="rounded=0;whiteSpace=wrap;html=1;" vertex="1" parent="1">
          <mxGeometry x="290" y="230" width="500" height="60" as="geometry" />
        </mxCell>
        <mxCell id="wyFu9s85v0W_oplKKnoT-3" value="Application (MyWaze)" style="rounded=0;whiteSpace=wrap;html=1;" vertex="1" parent="1">
          <mxGeometry x="90" y="240" width="110" height="60" as="geometry" />
        </mxCell>
        <mxCell id="wyFu9s85v0W_oplKKnoT-4" value="Client" style="rounded=0;whiteSpace=wrap;html=1;" vertex="1" parent="1">
          <mxGeometry x="-110" y="240" width="110" height="60" as="geometry" />
        </mxCell>
        <mxCell id="wyFu9s85v0W_oplKKnoT-6" value="&lt;b&gt;MyWazeDatabase Server&lt;/b&gt;" style="html=1;whiteSpace=wrap;" vertex="1" parent="1">
          <mxGeometry x="310" y="360" width="110" height="50" as="geometry" />
        </mxCell>
        <mxCell id="wyFu9s85v0W_oplKKnoT-7" value="&lt;b&gt;TrafficDatabase Server&lt;/b&gt;" style="html=1;whiteSpace=wrap;" vertex="1" parent="1">
          <mxGeometry x="485" y="360" width="110" height="50" as="geometry" />
        </mxCell>
        <mxCell id="wyFu9s85v0W_oplKKnoT-8" value="&lt;b&gt;Map Server&lt;/b&gt;" style="html=1;whiteSpace=wrap;" vertex="1" parent="1">
          <mxGeometry x="640" y="360" width="110" height="50" as="geometry" />
        </mxCell>
        <mxCell id="wyFu9s85v0W_oplKKnoT-20" value="" style="rounded=0;orthogonalLoop=1;jettySize=auto;html=1;endArrow=halfCircle;endFill=0;endSize=6;strokeWidth=1;sketch=0;exitX=1;exitY=0.5;exitDx=0;exitDy=0;" edge="1" target="wyFu9s85v0W_oplKKnoT-22" parent="1" source="wyFu9s85v0W_oplKKnoT-4">
          <mxGeometry relative="1" as="geometry">
            <mxPoint x="70" y="270" as="sourcePoint" />
          </mxGeometry>
        </mxCell>
        <mxCell id="wyFu9s85v0W_oplKKnoT-21" value="" style="rounded=0;orthogonalLoop=1;jettySize=auto;html=1;endArrow=oval;endFill=0;sketch=0;sourcePerimeterSpacing=0;targetPerimeterSpacing=0;endSize=10;exitX=0;exitY=0.5;exitDx=0;exitDy=0;" edge="1" target="wyFu9s85v0W_oplKKnoT-22" parent="1" source="wyFu9s85v0W_oplKKnoT-3">
          <mxGeometry relative="1" as="geometry">
            <mxPoint x="30" y="270" as="sourcePoint" />
          </mxGeometry>
        </mxCell>
        <mxCell id="wyFu9s85v0W_oplKKnoT-22" value="" style="ellipse;whiteSpace=wrap;html=1;align=center;aspect=fixed;fillColor=none;strokeColor=none;resizable=0;perimeter=centerPerimeter;rotatable=0;allowArrows=0;points=[];outlineConnect=1;" vertex="1" parent="1">
          <mxGeometry x="45" y="265" width="10" height="10" as="geometry" />
        </mxCell>
        <mxCell id="wyFu9s85v0W_oplKKnoT-23" value="" style="rounded=0;orthogonalLoop=1;jettySize=auto;html=1;endArrow=halfCircle;endFill=0;endSize=6;strokeWidth=1;sketch=0;exitX=0.046;exitY=1.011;exitDx=0;exitDy=0;exitPerimeter=0;" edge="1" target="wyFu9s85v0W_oplKKnoT-25" parent="1" source="wyFu9s85v0W_oplKKnoT-1">
          <mxGeometry relative="1" as="geometry">
            <mxPoint x="330" y="335" as="sourcePoint" />
          </mxGeometry>
        </mxCell>
        <mxCell id="wyFu9s85v0W_oplKKnoT-24" value="" style="rounded=0;orthogonalLoop=1;jettySize=auto;html=1;endArrow=oval;endFill=0;sketch=0;sourcePerimeterSpacing=0;targetPerimeterSpacing=0;endSize=10;exitX=0.091;exitY=0;exitDx=0;exitDy=0;exitPerimeter=0;" edge="1" target="wyFu9s85v0W_oplKKnoT-25" parent="1" source="wyFu9s85v0W_oplKKnoT-6">
          <mxGeometry relative="1" as="geometry">
            <mxPoint x="290" y="335" as="sourcePoint" />
          </mxGeometry>
        </mxCell>
        <mxCell id="wyFu9s85v0W_oplKKnoT-25" value="" style="ellipse;whiteSpace=wrap;html=1;align=center;aspect=fixed;fillColor=none;strokeColor=none;resizable=0;perimeter=centerPerimeter;rotatable=0;allowArrows=0;points=[];outlineConnect=1;" vertex="1" parent="1">
          <mxGeometry x="320" y="330" width="10" height="10" as="geometry" />
        </mxCell>
        <mxCell id="wyFu9s85v0W_oplKKnoT-26" value="" style="rounded=0;orthogonalLoop=1;jettySize=auto;html=1;endArrow=halfCircle;endFill=0;endSize=6;strokeWidth=1;sketch=0;exitX=0.5;exitY=1;exitDx=0;exitDy=0;" edge="1" target="wyFu9s85v0W_oplKKnoT-28" parent="1" source="wyFu9s85v0W_oplKKnoT-1">
          <mxGeometry relative="1" as="geometry">
            <mxPoint x="540" y="325" as="sourcePoint" />
          </mxGeometry>
        </mxCell>
        <mxCell id="wyFu9s85v0W_oplKKnoT-27" value="" style="rounded=0;orthogonalLoop=1;jettySize=auto;html=1;endArrow=oval;endFill=0;sketch=0;sourcePerimeterSpacing=0;targetPerimeterSpacing=0;endSize=10;exitX=0.5;exitY=0;exitDx=0;exitDy=0;" edge="1" target="wyFu9s85v0W_oplKKnoT-28" parent="1" source="wyFu9s85v0W_oplKKnoT-7">
          <mxGeometry relative="1" as="geometry">
            <mxPoint x="500" y="325" as="sourcePoint" />
          </mxGeometry>
        </mxCell>
        <mxCell id="wyFu9s85v0W_oplKKnoT-28" value="" style="ellipse;whiteSpace=wrap;html=1;align=center;aspect=fixed;fillColor=none;strokeColor=none;resizable=0;perimeter=centerPerimeter;rotatable=0;allowArrows=0;points=[];outlineConnect=1;" vertex="1" parent="1">
          <mxGeometry x="535" y="330" width="10" height="10" as="geometry" />
        </mxCell>
        <mxCell id="wyFu9s85v0W_oplKKnoT-29" value="" style="rounded=0;orthogonalLoop=1;jettySize=auto;html=1;endArrow=halfCircle;endFill=0;endSize=6;strokeWidth=1;sketch=0;" edge="1" target="wyFu9s85v0W_oplKKnoT-31" parent="1">
          <mxGeometry relative="1" as="geometry">
            <mxPoint x="695" y="291" as="sourcePoint" />
          </mxGeometry>
        </mxCell>
        <mxCell id="wyFu9s85v0W_oplKKnoT-30" value="" style="rounded=0;orthogonalLoop=1;jettySize=auto;html=1;endArrow=oval;endFill=0;sketch=0;sourcePerimeterSpacing=0;targetPerimeterSpacing=0;endSize=10;exitX=0.5;exitY=0;exitDx=0;exitDy=0;" edge="1" target="wyFu9s85v0W_oplKKnoT-31" parent="1" source="wyFu9s85v0W_oplKKnoT-8">
          <mxGeometry relative="1" as="geometry">
            <mxPoint x="640" y="325" as="sourcePoint" />
          </mxGeometry>
        </mxCell>
        <mxCell id="wyFu9s85v0W_oplKKnoT-31" value="" style="ellipse;whiteSpace=wrap;html=1;align=center;aspect=fixed;fillColor=none;strokeColor=none;resizable=0;perimeter=centerPerimeter;rotatable=0;allowArrows=0;points=[];outlineConnect=1;" vertex="1" parent="1">
          <mxGeometry x="690" y="320" width="10" height="10" as="geometry" />
        </mxCell>
        <mxCell id="wyFu9s85v0W_oplKKnoT-32" value="" style="rounded=0;orthogonalLoop=1;jettySize=auto;html=1;endArrow=halfCircle;endFill=0;endSize=6;strokeWidth=1;sketch=0;exitX=1;exitY=0.5;exitDx=0;exitDy=0;" edge="1" target="wyFu9s85v0W_oplKKnoT-34" parent="1" source="wyFu9s85v0W_oplKKnoT-3">
          <mxGeometry relative="1" as="geometry">
            <mxPoint x="280" y="270" as="sourcePoint" />
          </mxGeometry>
        </mxCell>
        <mxCell id="wyFu9s85v0W_oplKKnoT-33" value="" style="rounded=0;orthogonalLoop=1;jettySize=auto;html=1;endArrow=oval;endFill=0;sketch=0;sourcePerimeterSpacing=0;targetPerimeterSpacing=0;endSize=10;exitX=0.001;exitY=0.669;exitDx=0;exitDy=0;exitPerimeter=0;" edge="1" target="wyFu9s85v0W_oplKKnoT-34" parent="1" source="wyFu9s85v0W_oplKKnoT-1">
          <mxGeometry relative="1" as="geometry">
            <mxPoint x="240" y="270" as="sourcePoint" />
          </mxGeometry>
        </mxCell>
        <mxCell id="wyFu9s85v0W_oplKKnoT-34" value="" style="ellipse;whiteSpace=wrap;html=1;align=center;aspect=fixed;fillColor=none;strokeColor=none;resizable=0;perimeter=centerPerimeter;rotatable=0;allowArrows=0;points=[];outlineConnect=1;" vertex="1" parent="1">
          <mxGeometry x="240" y="265" width="10" height="10" as="geometry" />
        </mxCell>
        <mxCell id="wyFu9s85v0W_oplKKnoT-35" value="«server»&lt;br&gt;&lt;b&gt;Pc Manager&lt;/b&gt;" style="html=1;whiteSpace=wrap;" vertex="1" parent="1">
          <mxGeometry x="310" y="110" width="110" height="50" as="geometry" />
        </mxCell>
        <mxCell id="wyFu9s85v0W_oplKKnoT-36" value="&lt;b&gt;Pc Admin&lt;/b&gt;" style="html=1;whiteSpace=wrap;" vertex="1" parent="1">
          <mxGeometry x="485" y="110" width="110" height="50" as="geometry" />
        </mxCell>
        <mxCell id="wyFu9s85v0W_oplKKnoT-41" value="" style="rounded=0;orthogonalLoop=1;jettySize=auto;html=1;endArrow=halfCircle;endFill=0;endSize=6;strokeWidth=1;sketch=0;exitX=0.154;exitY=-0.012;exitDx=0;exitDy=0;exitPerimeter=0;" edge="1" target="wyFu9s85v0W_oplKKnoT-43" parent="1" source="wyFu9s85v0W_oplKKnoT-1">
          <mxGeometry relative="1" as="geometry">
            <mxPoint x="385" y="195" as="sourcePoint" />
          </mxGeometry>
        </mxCell>
        <mxCell id="wyFu9s85v0W_oplKKnoT-42" value="" style="rounded=0;orthogonalLoop=1;jettySize=auto;html=1;endArrow=oval;endFill=0;sketch=0;sourcePerimeterSpacing=0;targetPerimeterSpacing=0;endSize=10;" edge="1" target="wyFu9s85v0W_oplKKnoT-43" parent="1" source="wyFu9s85v0W_oplKKnoT-35">
          <mxGeometry relative="1" as="geometry">
            <mxPoint x="345" y="195" as="sourcePoint" />
          </mxGeometry>
        </mxCell>
        <mxCell id="wyFu9s85v0W_oplKKnoT-43" value="" style="ellipse;whiteSpace=wrap;html=1;align=center;aspect=fixed;fillColor=none;strokeColor=none;resizable=0;perimeter=centerPerimeter;rotatable=0;allowArrows=0;points=[];outlineConnect=1;" vertex="1" parent="1">
          <mxGeometry x="360" y="190" width="10" height="10" as="geometry" />
        </mxCell>
        <mxCell id="wyFu9s85v0W_oplKKnoT-44" value="" style="rounded=0;orthogonalLoop=1;jettySize=auto;html=1;endArrow=halfCircle;endFill=0;endSize=6;strokeWidth=1;sketch=0;exitX=0.5;exitY=0;exitDx=0;exitDy=0;" edge="1" target="wyFu9s85v0W_oplKKnoT-46" parent="1" source="wyFu9s85v0W_oplKKnoT-1">
          <mxGeometry relative="1" as="geometry">
            <mxPoint x="545" y="195" as="sourcePoint" />
          </mxGeometry>
        </mxCell>
        <mxCell id="wyFu9s85v0W_oplKKnoT-45" value="" style="rounded=0;orthogonalLoop=1;jettySize=auto;html=1;endArrow=oval;endFill=0;sketch=0;sourcePerimeterSpacing=0;targetPerimeterSpacing=0;endSize=10;exitX=0.5;exitY=1;exitDx=0;exitDy=0;" edge="1" target="wyFu9s85v0W_oplKKnoT-46" parent="1" source="wyFu9s85v0W_oplKKnoT-36">
          <mxGeometry relative="1" as="geometry">
            <mxPoint x="505" y="195" as="sourcePoint" />
          </mxGeometry>
        </mxCell>
        <mxCell id="wyFu9s85v0W_oplKKnoT-46" value="" style="ellipse;whiteSpace=wrap;html=1;align=center;aspect=fixed;fillColor=none;strokeColor=none;resizable=0;perimeter=centerPerimeter;rotatable=0;allowArrows=0;points=[];outlineConnect=1;" vertex="1" parent="1">
          <mxGeometry x="535" y="190" width="10" height="10" as="geometry" />
        </mxCell>
      </root>
    </mxGraphModel>
  </diagram>
</mxfile>
